<svg version="1.1" id="Layer_1" xmlns="http://www.w3.org/2000/svg" xmlns:xlink="http://www.w3.org/1999/xlink" x="0px" y="0px"
	 width="100%" viewBox="200 200 514 514" enable-background="new 0 0 1028 1028" xml:space="preserve">
<path fill="#FFFFFF" opacity="000000" stroke="none" 
	d="
M495.000000,1029.000000 
	C330.019958,1029.000000 165.539932,1029.000000 1.029944,1029.000000 
	C1.029944,686.394897 1.029944,343.789764 1.029944,1.092321 
	C343.563507,1.092321 686.127014,1.092321 1028.845215,1.092321 
	C1028.845215,343.666626 1028.845215,686.333313 1028.845215,1029.000000 
	C851.122803,1029.000000 673.311401,1029.000000 495.000000,1029.000000 
M344.845245,348.862579 
	C344.711853,348.754974 344.578491,348.647369 344.592804,347.833374 
	C350.942657,333.501282 357.292542,319.169159 364.017212,303.991180 
	C356.757721,303.991180 350.783813,303.821075 344.833710,304.122192 
	C343.504272,304.189484 342.258484,305.910156 340.170563,307.469971 
	C342.251587,308.173706 342.838196,308.488159 343.453735,308.562317 
	C349.784821,309.325287 349.823975,309.375397 347.337067,315.511658 
	C344.840942,321.670776 342.314575,327.817657 339.835510,333.983612 
	C334.382324,347.546967 328.668030,361.014709 323.608459,374.723755 
	C320.171021,384.037506 324.339172,389.185059 334.243256,388.972900 
	C352.216064,388.587921 370.845703,371.535309 375.130432,351.652191 
	C376.232117,346.540192 376.683075,341.517456 372.059692,337.938171 
	C367.244995,334.210754 361.950317,335.749847 357.590454,338.596313 
	C353.076599,341.543335 349.308075,345.631927 344.845245,348.862579 
M211.173172,345.172150 
	C211.355423,345.325989 211.537659,345.479797 211.478027,346.269592 
	C208.984711,350.007812 206.110123,353.552826 204.093033,357.532440 
	C201.479446,362.688873 198.780304,368.013672 197.490540,373.583801 
	C195.061508,384.074341 203.194107,391.437317 213.443390,388.232056 
	C217.288940,387.029449 220.744064,384.443146 224.213928,382.231567 
	C225.940399,381.131104 227.298203,379.452240 228.905594,377.958038 
	C235.326279,391.173096 245.841614,392.890839 255.954208,382.497467 
	C264.949677,373.252228 269.297211,361.873566 269.466858,349.071472 
	C269.511078,345.733337 268.479919,342.118805 266.999908,339.092224 
	C265.336975,335.691528 260.665497,334.954773 257.902527,337.087952 
	C254.795410,339.486755 255.009872,342.432312 256.933685,345.483704 
	C257.376617,346.186279 257.921539,346.823700 258.384460,347.514587 
	C264.242523,356.257141 260.656219,371.938782 251.569031,377.183105 
	C248.049728,379.214081 244.375900,379.918579 240.697525,377.635834 
	C237.120987,375.416290 236.364029,371.930511 236.838776,368.047668 
	C237.039841,366.403320 237.266891,364.727264 237.776962,363.161713 
	C239.784164,357.000916 242.104294,350.933502 243.861282,344.705353 
	C244.341553,343.002899 243.790512,339.624420 242.781006,339.192413 
	C241.007385,338.433411 238.324661,338.908997 236.393784,339.735046 
	C235.202072,340.244873 234.264648,342.274323 233.966476,343.771515 
	C233.123108,348.006531 232.843735,352.352905 232.021500,356.593231 
	C230.540268,364.231903 229.936844,372.620422 222.139389,376.865753 
	C219.315781,378.403046 214.452896,379.209320 212.114517,377.766266 
	C209.825912,376.353882 208.421463,371.576965 208.630096,368.408630 
	C209.281281,358.519379 214.249634,350.092163 219.423523,341.877075 
	C220.255493,340.556061 221.057953,339.216492 221.800003,338.006287 
	C213.580368,338.006287 205.826523,337.897461 198.077133,338.036377 
	C190.017136,338.180878 182.908615,344.540771 182.384918,352.555328 
	C182.205856,355.295868 183.270355,358.476898 184.760529,360.826324 
	C185.593552,362.139709 188.553070,362.798370 190.388443,362.545898 
	C191.681473,362.368042 193.562408,360.193115 193.612228,358.851624 
	C193.673126,357.211823 192.181000,355.457703 191.198563,353.852081 
	C190.261230,352.320190 189.115921,350.915558 188.062027,349.454956 
	C189.897400,348.632874 191.661148,347.402496 193.581650,347.065613 
	C199.248550,346.071381 204.977509,345.430756 211.173172,345.172150 
M333.054291,544.655884 
	C333.650513,539.697815 334.553070,534.751404 334.741943,529.777832 
	C334.882202,526.083618 336.138489,524.982788 339.811066,525.025635 
	C355.631165,525.210144 371.454620,525.118347 387.276794,525.088745 
	C389.389801,525.084778 391.502441,524.861694 393.812073,524.728699 
	C395.498138,511.295410 397.128540,498.305756 398.883453,484.323792 
	C379.144592,484.323792 360.012512,484.323792 340.534271,484.323792 
	C341.402374,476.427185 342.395447,469.504974 342.844299,462.547668 
	C343.130402,458.112549 344.410156,456.254181 349.364197,456.334747 
	C368.512360,456.646057 387.669159,456.384705 406.821259,456.532104 
	C410.189301,456.558014 411.538422,455.560303 411.806488,452.154663 
	C412.210602,447.021027 413.158691,441.932495 413.772247,436.812408 
	C414.532776,430.465759 415.187836,424.106506 415.955872,417.141327 
	C413.325989,417.141327 411.531372,417.141357 409.736725,417.141357 
	C388.751465,417.141235 367.766174,417.140717 346.780914,417.141174 
	C334.955872,417.141449 323.130371,417.202881 311.306122,417.105438 
	C308.048187,417.078613 305.974182,417.523376 305.937805,421.607544 
	C305.901093,425.736053 304.988129,429.855286 304.481140,433.981354 
	C302.006104,454.124390 299.519989,474.266113 297.073059,494.412598 
	C294.124969,518.685242 291.208038,542.961731 288.287323,567.237793 
	C287.463440,574.085632 286.673553,580.937622 285.807373,588.304016 
	C299.509430,588.304016 312.307190,588.385864 325.098938,588.146606 
	C326.108307,588.127808 327.770538,585.974487 327.955414,584.649292 
	C329.771362,571.635376 331.338257,558.586670 333.054291,544.655884 
M699.876282,522.582153 
	C699.853577,521.593811 699.707520,520.590454 699.826172,519.619385 
	C702.672241,496.321014 705.562073,473.027954 708.404480,449.729156 
	C709.076660,444.219604 709.607056,438.692719 710.179321,433.390045 
	C705.006409,432.048218 701.979187,433.603271 698.929749,436.938232 
	C674.533997,463.617676 649.934143,490.110474 625.403992,516.667053 
	C616.022095,526.823914 606.747803,537.082520 597.227478,547.107666 
	C594.683105,549.786926 592.987427,552.799133 594.534851,555.915222 
	C595.172668,557.199646 598.899719,557.319153 601.226257,557.336182 
	C616.890076,557.450928 632.555115,557.388062 648.219788,557.406433 
	C649.987610,557.408508 651.755310,557.558350 653.960327,557.659790 
	C652.744629,568.035400 651.593079,577.863464 650.363586,588.356934 
	C662.973389,588.356934 674.935059,588.202576 686.888550,588.446472 
	C690.718811,588.524597 691.715454,586.897766 692.070679,583.557373 
	C692.880249,575.945251 694.088013,568.375000 694.866211,560.760376 
	C695.128357,558.195374 696.054138,557.267822 698.557373,557.365906 
	C701.885071,557.496338 705.224182,557.317871 708.554077,557.416260 
	C711.296509,557.497314 712.783020,556.807312 712.994385,553.583130 
	C713.352905,548.114441 714.355957,542.691040 714.963257,537.234680 
	C715.451233,532.850098 715.754517,528.445007 716.211304,523.232971 
	C710.533142,523.232971 705.571777,523.232971 699.876282,522.582153 
M459.044067,532.775208 
	C461.070526,516.482178 463.096954,500.189178 465.130585,483.838379 
	C463.814148,483.468475 463.193817,483.144226 462.572266,483.141785 
	C451.241943,483.097198 439.910919,483.147552 428.581390,483.039673 
	C425.535217,483.010681 425.232849,484.720245 424.938843,487.138519 
	C421.443787,515.887146 417.844604,544.623169 414.295563,573.365295 
	C413.710052,578.107178 413.234039,582.862488 412.662292,588.018555 
	C426.106018,588.018555 438.852844,588.018555 451.753754,588.018555 
	C451.983185,587.413147 452.345276,586.822571 452.424225,586.196228 
	C454.631287,568.692871 456.809631,551.185791 459.044067,532.775208 
M484.874054,552.035583 
	C496.844452,552.037476 508.814819,552.040039 520.785217,552.041016 
	C530.889526,552.041870 531.051880,552.064758 532.466370,542.337585 
	C533.726013,533.675842 534.572571,524.954041 535.571655,516.510254 
	C534.845032,516.020813 534.573853,515.678650 534.300720,515.677063 
	C518.845764,515.589905 503.390198,515.471680 487.936829,515.608032 
	C486.944305,515.616760 485.261780,517.516846 485.097504,518.703003 
	C483.707977,528.734741 482.518829,538.797424 481.529205,548.876282 
	C481.435181,549.833923 483.114532,550.965698 484.874054,552.035583 
M457.381714,434.902649 
	C454.769165,434.442474 452.171661,433.716248 449.541534,433.567871 
	C437.644653,432.896606 427.653503,441.762299 426.929749,453.462555 
	C426.226257,464.835602 433.325653,472.502350 445.607483,473.633026 
	C456.346954,474.621704 465.888062,468.296356 469.045959,458.094147 
	C471.951965,448.705841 467.969269,440.341766 457.381714,434.902649 
M291.542114,364.924805 
	C293.662781,364.519867 295.837463,364.294983 297.894440,363.677765 
	C305.476654,361.402710 312.791595,358.555695 317.065735,351.254730 
	C319.311615,347.418396 320.831543,343.192993 317.764099,339.113159 
	C314.820496,335.197998 310.435181,335.540588 306.304474,336.414795 
	C289.715332,339.925568 274.428711,362.224701 276.979126,378.994781 
	C277.767059,384.175720 280.771362,387.394745 285.808014,388.624084 
	C294.960754,390.858063 307.385468,384.795807 312.543335,374.387695 
	C309.889496,375.267090 308.414612,375.585297 307.096222,376.225647 
	C303.577454,377.934937 300.282745,380.289886 296.602051,381.427551 
	C293.170532,382.488190 289.800110,380.371002 289.424835,376.973450 
	C288.997803,373.106842 290.202881,369.059967 291.542114,364.924805 
z"/>
<path fill="#4253FE" opacity="1.000000" stroke="none" 
	d="
M333.015076,545.101868 
	C331.338257,558.586670 329.771362,571.635376 327.955414,584.649292 
	C327.770538,585.974487 326.108307,588.127808 325.098938,588.146606 
	C312.307190,588.385864 299.509430,588.304016 285.807373,588.304016 
	C286.673553,580.937622 287.463440,574.085632 288.287323,567.237793 
	C291.208038,542.961731 294.124969,518.685242 297.073059,494.412598 
	C299.519989,474.266113 302.006104,454.124390 304.481140,433.981354 
	C304.988129,429.855286 305.901093,425.736053 305.937805,421.607544 
	C305.974182,417.523376 308.048187,417.078613 311.306122,417.105438 
	C323.130371,417.202881 334.955872,417.141449 346.780914,417.141174 
	C367.766174,417.140717 388.751465,417.141235 409.736725,417.141357 
	C411.531372,417.141357 413.325989,417.141327 415.955872,417.141327 
	C415.187836,424.106506 414.532776,430.465759 413.772247,436.812408 
	C413.158691,441.932495 412.210602,447.021027 411.806488,452.154663 
	C411.538422,455.560303 410.189301,456.558014 406.821259,456.532104 
	C387.669159,456.384705 368.512360,456.646057 349.364197,456.334747 
	C344.410156,456.254181 343.130402,458.112549 342.844299,462.547668 
	C342.395447,469.504974 341.402374,476.427185 340.534271,484.323792 
	C360.012512,484.323792 379.144592,484.323792 398.883453,484.323792 
	C397.128540,498.305756 395.498138,511.295410 393.812073,524.728699 
	C391.502441,524.861694 389.389801,525.084778 387.276794,525.088745 
	C371.454620,525.118347 355.631165,525.210144 339.811066,525.025635 
	C336.138489,524.982788 334.882202,526.083618 334.741943,529.777832 
	C334.553070,534.751404 333.650513,539.697815 333.015076,545.101868 
z"/>
<path fill="#4253FE" opacity="1.000000" stroke="none" 
	d="
M700.243408,522.907593 
	C705.571777,523.232971 710.533142,523.232971 716.211304,523.232971 
	C715.754517,528.445007 715.451233,532.850098 714.963257,537.234680 
	C714.355957,542.691040 713.352905,548.114441 712.994385,553.583130 
	C712.783020,556.807312 711.296509,557.497314 708.554077,557.416260 
	C705.224182,557.317871 701.885071,557.496338 698.557373,557.365906 
	C696.054138,557.267822 695.128357,558.195374 694.866211,560.760376 
	C694.088013,568.375000 692.880249,575.945251 692.070679,583.557373 
	C691.715454,586.897766 690.718811,588.524597 686.888550,588.446472 
	C674.935059,588.202576 662.973389,588.356934 650.363586,588.356934 
	C651.593079,577.863464 652.744629,568.035400 653.960327,557.659790 
	C651.755310,557.558350 649.987610,557.408508 648.219788,557.406433 
	C632.555115,557.388062 616.890076,557.450928 601.226257,557.336182 
	C598.899719,557.319153 595.172668,557.199646 594.534851,555.915222 
	C592.987427,552.799133 594.683105,549.786926 597.227478,547.107666 
	C606.747803,537.082520 616.022095,526.823914 625.403992,516.667053 
	C649.934143,490.110474 674.533997,463.617676 698.929749,436.938232 
	C701.979187,433.603271 705.006409,432.048218 710.179321,433.390045 
	C709.607056,438.692719 709.076660,444.219604 708.404480,449.729156 
	C705.562073,473.027954 702.672241,496.321014 699.826172,519.619385 
	C699.707520,520.590454 699.853577,521.593811 700.243408,522.907593 
z"/>
<path fill="#4253FE" opacity="1.000000" stroke="none" 
	d="
M459.018402,533.227295 
	C456.809631,551.185791 454.631287,568.692871 452.424225,586.196228 
	C452.345276,586.822571 451.983185,587.413147 451.753754,588.018555 
	C438.852844,588.018555 426.106018,588.018555 412.662292,588.018555 
	C413.234039,582.862488 413.710052,578.107178 414.295563,573.365295 
	C417.844604,544.623169 421.443787,515.887146 424.938843,487.138519 
	C425.232849,484.720245 425.535217,483.010681 428.581390,483.039673 
	C439.910919,483.147552 451.241943,483.097198 462.572266,483.141785 
	C463.193817,483.144226 463.814148,483.468475 465.130585,483.838379 
	C463.096954,500.189178 461.070526,516.482178 459.018402,533.227295 
z"/>
<path fill="#5E6DFE" opacity="1.000000" stroke="none" 
	d="
M210.682175,344.651794 
	C204.977509,345.430756 199.248550,346.071381 193.581650,347.065613 
	C191.661148,347.402496 189.897400,348.632874 188.062042,349.454956 
	C189.115921,350.915558 190.261230,352.320190 191.198563,353.852081 
	C192.181000,355.457703 193.673126,357.211823 193.612228,358.851624 
	C193.562408,360.193115 191.681473,362.368042 190.388443,362.545898 
	C188.553070,362.798370 185.593552,362.139709 184.760529,360.826324 
	C183.270355,358.476898 182.205856,355.295868 182.384918,352.555328 
	C182.908615,344.540771 190.017136,338.180878 198.077133,338.036377 
	C205.826523,337.897461 213.580368,338.006287 221.800003,338.006287 
	C221.057953,339.216492 220.255493,340.556061 219.423523,341.877075 
	C214.249634,350.092163 209.281281,358.519379 208.630096,368.408630 
	C208.421463,371.576965 209.825912,376.353882 212.114517,377.766266 
	C214.452896,379.209320 219.315781,378.403046 222.139389,376.865753 
	C229.936844,372.620422 230.540268,364.231903 232.021500,356.593231 
	C232.843735,352.352905 233.123108,348.006531 233.966476,343.771515 
	C234.264648,342.274323 235.202072,340.244873 236.393784,339.735046 
	C238.324661,338.908997 241.007385,338.433411 242.781006,339.192413 
	C243.790512,339.624420 244.341553,343.002899 243.861282,344.705353 
	C242.104294,350.933502 239.784164,357.000916 237.776962,363.161713 
	C237.266891,364.727264 237.039841,366.403320 236.838776,368.047668 
	C236.364029,371.930511 237.120987,375.416290 240.697525,377.635834 
	C244.375900,379.918579 248.049728,379.214081 251.569031,377.183105 
	C260.656219,371.938782 264.242523,356.257141 258.384460,347.514587 
	C257.921539,346.823700 257.376617,346.186279 256.933685,345.483704 
	C255.009872,342.432312 254.795410,339.486755 257.902527,337.087952 
	C260.665497,334.954773 265.336975,335.691528 266.999908,339.092224 
	C268.479919,342.118805 269.511078,345.733337 269.466858,349.071472 
	C269.297211,361.873566 264.949677,373.252228 255.954208,382.497467 
	C245.841614,392.890839 235.326279,391.173096 228.905594,377.958038 
	C227.298203,379.452240 225.940399,381.131104 224.213928,382.231567 
	C220.744064,384.443146 217.288940,387.029449 213.443390,388.232056 
	C203.194107,391.437317 195.061508,384.074341 197.490540,373.583801 
	C198.780304,368.013672 201.479446,362.688873 204.093033,357.532440 
	C206.110123,353.552826 208.984711,350.007812 211.848984,345.792114 
	C212.367310,344.927887 212.514679,344.541077 212.662048,344.154297 
	C212.002090,344.320129 211.342133,344.485962 210.682175,344.651794 
z"/>
<path fill="#4253FE" opacity="1.000000" stroke="none" 
	d="
M484.422333,552.026123 
	C483.114532,550.965698 481.435181,549.833923 481.529205,548.876282 
	C482.518829,538.797424 483.707977,528.734741 485.097504,518.703003 
	C485.261780,517.516846 486.944305,515.616760 487.936829,515.608032 
	C503.390198,515.471680 518.845764,515.589905 534.300720,515.677063 
	C534.573853,515.678650 534.845032,516.020813 535.571655,516.510254 
	C534.572571,524.954041 533.726013,533.675842 532.466370,542.337585 
	C531.051880,552.064758 530.889526,552.041870 520.785217,552.041016 
	C508.814819,552.040039 496.844452,552.037476 484.422333,552.026123 
z"/>
<path fill="#5E6DFE" opacity="1.000000" stroke="none" 
	d="
M345.213562,349.221191 
	C349.308075,345.631927 353.076599,341.543335 357.590454,338.596313 
	C361.950317,335.749847 367.244995,334.210754 372.059692,337.938171 
	C376.683075,341.517456 376.232117,346.540192 375.130432,351.652191 
	C370.845703,371.535309 352.216064,388.587921 334.243256,388.972900 
	C324.339172,389.185059 320.171021,384.037506 323.608459,374.723755 
	C328.668030,361.014709 334.382324,347.546967 339.835510,333.983612 
	C342.314575,327.817657 344.840942,321.670776 347.337067,315.511658 
	C349.823975,309.375397 349.784821,309.325287 343.453735,308.562317 
	C342.838196,308.488159 342.251587,308.173706 340.170563,307.469971 
	C342.258484,305.910156 343.504272,304.189484 344.833710,304.122192 
	C350.783813,303.821075 356.757721,303.991180 364.017212,303.991180 
	C357.292542,319.169159 350.942657,333.501282 344.361053,348.423401 
	C344.182373,349.290131 344.235443,349.566864 344.288483,349.843567 
	C344.596832,349.636108 344.905182,349.428650 345.213562,349.221191 
M353.423401,346.762512 
	C344.221252,354.291595 338.451294,364.091370 335.165802,375.329590 
	C334.475891,377.689453 335.489960,380.547485 335.718842,383.175964 
	C338.523376,382.795319 341.887421,383.279480 344.037964,381.888031 
	C354.751953,374.956146 361.352417,365.018677 363.119049,352.285004 
	C363.470642,349.750732 362.232727,346.995941 361.727814,344.342834 
	C359.150238,344.991028 356.572632,345.639221 353.423401,346.762512 
z"/>
<path fill="#4253FE" opacity="1.000000" stroke="none" 
	d="
M457.750458,435.024689 
	C467.969269,440.341766 471.951965,448.705841 469.045959,458.094147 
	C465.888062,468.296356 456.346954,474.621704 445.607483,473.633026 
	C433.325653,472.502350 426.226257,464.835602 426.929749,453.462555 
	C427.653503,441.762299 437.644653,432.896606 449.541534,433.567871 
	C452.171661,433.716248 454.769165,434.442474 457.750458,435.024689 
z"/>
<path fill="#5E6DFE" opacity="1.000000" stroke="none" 
	d="
M291.120300,365.008118 
	C290.202881,369.059967 288.997803,373.106842 289.424835,376.973450 
	C289.800110,380.371002 293.170532,382.488190 296.602051,381.427551 
	C300.282745,380.289886 303.577454,377.934937 307.096222,376.225647 
	C308.414612,375.585297 309.889496,375.267090 312.543335,374.387695 
	C307.385468,384.795807 294.960754,390.858063 285.808014,388.624084 
	C280.771362,387.394745 277.767059,384.175720 276.979126,378.994781 
	C274.428711,362.224701 289.715332,339.925568 306.304474,336.414795 
	C310.435181,335.540588 314.820496,335.197998 317.764099,339.113159 
	C320.831543,343.192993 319.311615,347.418396 317.065735,351.254730 
	C312.791595,358.555695 305.476654,361.402710 297.894440,363.677765 
	C295.837463,364.294983 293.662781,364.519867 291.120300,365.008118 
M295.046234,350.676727 
	C293.654663,353.902588 292.263092,357.128479 290.871521,360.354340 
	C294.780823,360.093506 297.776733,359.179199 300.526367,357.780640 
	C304.931183,355.540253 307.921875,352.005615 308.096436,346.863068 
	C308.145050,345.429810 307.376251,343.310486 306.297150,342.681244 
	C305.204926,342.044403 302.805359,342.310760 301.786438,343.155762 
	C299.398651,345.135803 297.494080,347.698547 295.046234,350.676727 
z"/>
<path fill="#FFFFFF" opacity="000000" stroke="none" 
	d="
M210.927673,344.911987 
	C211.342133,344.485962 212.002090,344.320129 212.662048,344.154297 
	C212.514679,344.541077 212.367310,344.927887 211.969910,345.474152 
	C211.537659,345.479797 211.355423,345.325989 210.927673,344.911987 
z"/>
<path fill="#FFFFFF" opacity="000000" stroke="none" 
	d="
M353.709229,346.524963 
	C356.572632,345.639221 359.150238,344.991028 361.727814,344.342834 
	C362.232727,346.995941 363.470642,349.750732 363.119049,352.285004 
	C361.352417,365.018677 354.751953,374.956146 344.037964,381.888031 
	C341.887421,383.279480 338.523376,382.795319 335.718811,383.175964 
	C335.489960,380.547485 334.475891,377.689453 335.165802,375.329590 
	C338.451294,364.091370 344.221252,354.291595 353.709229,346.524963 
z"/>
<path fill="#FFFFFF" opacity="000000" stroke="none" 
	d="
M345.029419,349.041870 
	C344.905182,349.428650 344.596832,349.636108 344.288483,349.843567 
	C344.235443,349.566864 344.182373,349.290131 344.287201,348.776611 
	C344.578491,348.647369 344.711853,348.754974 345.029419,349.041870 
z"/>
<path fill="#FFFFFF" opacity="000000" stroke="none" 
	d="
M295.220093,350.351074 
	C297.494080,347.698547 299.398651,345.135803 301.786438,343.155762 
	C302.805359,342.310760 305.204926,342.044403 306.297150,342.681244 
	C307.376251,343.310486 308.145050,345.429810 308.096436,346.863068 
	C307.921875,352.005615 304.931183,355.540253 300.526367,357.780640 
	C297.776733,359.179199 294.780823,360.093506 290.871521,360.354340 
	C292.263092,357.128479 293.654663,353.902588 295.220093,350.351074 
z"/>
</svg>