<svg version="1.1" id="Layer_1" xmlns="http://www.w3.org/2000/svg" xmlns:xlink="http://www.w3.org/1999/xlink" x="0px" y="0px"
	 width="100%" viewBox="0 0 223 141" enable-background="new 0 0 223 141" xml:space="preserve">
<path fill="#2A2B38" opacity="000000" stroke="none" 
	d="
M184.000000,142.000000 
	C171.645767,142.000000 159.291550,142.000000 146.672333,141.732956 
	C150.554153,139.494370 154.721222,137.564178 158.843307,135.542297 
	C166.392014,131.839676 174.029388,128.291245 181.379196,124.225464 
	C183.670197,122.958122 185.153610,120.230850 187.449707,118.111809 
	C190.488281,118.051712 193.083878,118.051712 195.737610,118.051712 
	C196.251678,116.133621 196.671280,114.567963 197.398956,112.870491 
	C198.976547,111.690750 200.560196,110.862091 201.467865,109.561615 
	C212.801956,93.322533 215.990219,75.161667 211.670258,56.228657 
	C207.469864,37.819717 196.362335,23.246214 182.478241,10.656739 
	C179.508484,7.963884 177.468384,4.245789 175.000000,0.999999 
	C179.024551,1.000000 183.049088,1.000000 187.664200,1.314639 
	C190.039795,3.789483 191.697388,6.071811 193.630859,8.089786 
	C204.955750,19.909519 215.275650,32.339958 220.124634,48.446579 
	C220.742950,50.500465 222.676010,52.158554 224.000000,54.000000 
	C224.000000,68.354225 224.000000,82.708458 223.716766,97.712357 
	C221.961243,100.727432 220.478165,103.086205 219.019058,105.459694 
	C216.418152,109.690559 214.528778,114.638885 211.093582,118.018318 
	C204.016312,124.980698 196.102005,131.090164 188.567276,137.591339 
	C186.967712,138.971481 185.518494,140.525879 184.000000,142.000000 
z"/>
<path fill="#30324E" opacity="000000" stroke="none" 
	d="
M29.000000,1.000000 
	C36.354252,1.000000 43.708500,1.000000 51.403656,1.315152 
	C50.443592,3.333642 48.987965,4.942158 47.873569,6.759877 
	C45.486576,10.653353 43.275913,14.654926 40.616825,18.732246 
	C35.094593,20.439150 36.642036,25.109648 36.174381,28.503428 
	C33.394726,48.675320 30.932512,68.890961 28.068270,88.881516 
	C26.613947,86.893852 25.097748,85.253952 24.353102,83.317375 
	C18.856966,69.023689 18.085098,54.179085 19.484526,39.101345 
	C20.708868,25.910048 24.281656,13.314145 29.000000,1.000000 
z"/>
<path fill="#2E2F47" opacity="000000" stroke="none" 
	d="
M28.532394,1.000000 
	C24.281656,13.314145 20.708868,25.910048 19.484526,39.101345 
	C18.085098,54.179085 18.856966,69.023689 24.353102,83.317375 
	C25.097748,85.253952 26.613947,86.893852 28.076040,89.326736 
	C27.726305,95.026108 27.073421,100.069862 26.122543,104.910065 
	C24.347399,102.730774 22.599516,100.901833 21.436026,98.756027 
	C12.308759,81.922806 9.022484,63.585461 9.179666,44.769428 
	C9.301601,30.172783 11.001505,15.589321 12.000000,1.000000 
	C17.354929,1.000000 22.709860,1.000000 28.532394,1.000000 
z"/>
<path fill="#323353" opacity="000000" stroke="none" 
	d="
M40.993034,18.612230 
	C43.275913,14.654926 45.486576,10.653353 47.873569,6.759877 
	C48.987965,4.942158 50.443592,3.333642 51.872276,1.315152 
	C67.687561,1.000000 83.375122,1.000000 99.677689,1.304464 
	C104.507065,4.395391 108.894936,6.957314 112.881798,10.038187 
	C116.168808,12.578249 118.980919,15.732876 121.540390,18.690907 
	C115.062355,18.718870 109.047417,18.671087 102.901695,18.325802 
	C93.237709,10.572425 82.351967,9.725112 71.188034,12.444094 
	C67.499649,13.342403 64.361404,16.499559 60.509171,18.689938 
	C53.695496,18.708057 47.344265,18.660143 40.993034,18.612230 
z"/>
<path fill="#2B2C3C" opacity="000000" stroke="none" 
	d="
M174.545898,0.999999 
	C177.468384,4.245789 179.508484,7.963884 182.478241,10.656739 
	C196.362335,23.246214 207.469864,37.819717 211.670258,56.228657 
	C215.990219,75.161667 212.801956,93.322533 201.467865,109.561615 
	C200.560196,110.862091 198.976547,111.690750 197.355453,112.444229 
	C197.996307,104.766533 198.988724,97.383278 200.269867,89.807320 
	C205.841171,82.942314 204.733887,75.032104 204.726791,67.379471 
	C204.725754,66.248184 203.567184,65.117958 202.987549,63.601231 
	C207.158142,52.672390 203.691254,44.605675 194.815292,37.913803 
	C193.100815,34.518471 191.963837,31.049557 189.746094,28.533100 
	C183.313232,21.233770 176.403793,14.356479 169.778732,7.223145 
	C168.006683,5.315135 166.583405,3.083217 165.000000,1.000000 
	C168.030594,1.000000 171.061188,1.000000 174.545898,0.999999 
z"/>
<path fill="#2D2E42" opacity="000000" stroke="none" 
	d="
M11.517044,1.000000 
	C11.001505,15.589321 9.301601,30.172783 9.179666,44.769428 
	C9.022484,63.585461 12.308759,81.922806 21.436026,98.756027 
	C22.599516,100.901833 24.347399,102.730774 26.135067,105.335632 
	C26.046789,108.666344 25.647989,111.367943 24.928036,113.927132 
	C23.123142,112.266205 21.423086,110.904541 20.190069,109.204208 
	C10.785968,96.235847 7.111444,81.109680 3.922959,65.787132 
	C3.231825,62.465828 1.988817,59.259361 1.000000,56.000000 
	C1.000000,37.666607 1.000000,19.333216 1.000000,1.000000 
	C4.414847,1.000000 7.724467,1.000000 11.517044,1.000000 
z"/>
<path fill="#2D2E41" opacity="000000" stroke="none" 
	d="
M108.000000,142.000000 
	C95.979103,142.000000 83.958214,142.000000 71.231628,141.744141 
	C68.560249,140.707230 66.649780,139.718002 64.619743,139.179489 
	C52.839417,136.054459 41.665005,131.700989 32.532543,123.305527 
	C31.040634,121.934013 30.159986,119.897583 29.437450,118.104820 
	C32.250351,118.083664 34.622623,118.126160 37.097069,118.487305 
	C39.580402,121.038101 41.681190,123.712921 44.389610,125.428375 
	C58.703159,134.494278 74.897781,136.892227 91.296234,136.669937 
	C112.350403,136.384552 132.207184,129.908798 151.628113,122.246765 
	C153.642593,121.452019 155.222763,119.556381 157.461578,118.111557 
	C161.613510,118.091469 165.308304,118.131355 168.852737,118.462448 
	C164.556946,121.398994 160.729141,124.980980 156.206726,126.514397 
	C142.526337,131.153000 128.565887,134.962219 114.742134,139.184845 
	C112.424385,139.892838 110.243904,141.050247 108.000000,142.000000 
z"/>
<path fill="#282932" opacity="000000" stroke="none" 
	d="
M184.468658,142.000000 
	C185.518494,140.525879 186.967712,138.971481 188.567276,137.591339 
	C196.102005,131.090164 204.016312,124.980698 211.093582,118.018318 
	C214.528778,114.638885 216.418152,109.690559 219.019058,105.459694 
	C220.478165,103.086205 221.961243,100.727432 223.716766,98.181015 
	C224.000000,112.589851 224.000000,127.179710 224.000000,142.000000 
	C210.980011,142.000000 197.958664,142.000000 184.468658,142.000000 
z"/>
<path fill="#2C2D3E" opacity="000000" stroke="none" 
	d="
M28.996819,118.168472 
	C30.159986,119.897583 31.040634,121.934013 32.532543,123.305527 
	C41.665005,131.700989 52.839417,136.054459 64.619743,139.179489 
	C66.649780,139.718002 68.560249,140.707230 70.762970,141.744141 
	C62.979099,142.000000 54.958202,142.000000 46.322376,141.695526 
	C44.651901,140.367661 43.766216,139.014221 42.515308,138.370438 
	C23.874899,128.777054 11.813507,113.398682 3.603120,94.552032 
	C3.031186,93.239174 1.881185,92.178139 1.000000,91.000000 
	C1.000000,79.645775 1.000000,68.291542 1.000000,56.468658 
	C1.988817,59.259361 3.231825,62.465828 3.922959,65.787132 
	C7.111444,81.109680 10.785968,96.235847 20.190069,109.204208 
	C21.423086,110.904541 23.123142,112.266205 24.967419,114.315353 
	C24.560968,118.150856 26.919138,118.004799 28.996819,118.168472 
z"/>
<path fill="#2E2F46" opacity="000000" stroke="none" 
	d="
M130.000000,1.000000 
	C136.354401,1.000000 142.708786,1.000000 149.658920,1.314805 
	C155.608047,7.025262 161.209747,12.200763 166.244156,17.879221 
	C171.159760,23.423655 175.496033,29.481682 179.781738,35.507488 
	C175.382507,37.627079 171.288193,39.553425 166.994965,41.170883 
	C165.180740,38.570789 163.827209,36.024635 161.895752,34.041275 
	C157.830704,29.866951 153.462570,25.987785 149.184143,21.588497 
	C148.101608,20.328457 147.053741,19.467405 145.926193,18.283846 
	C144.225769,15.969832 142.726593,13.862241 140.958755,12.011217 
	C137.382950,8.267155 133.661438,4.662273 130.000000,1.000000 
z"/>
<path fill="#292934" opacity="000000" stroke="none" 
	d="
M224.000000,53.531342 
	C222.676010,52.158554 220.742950,50.500465 220.124634,48.446579 
	C215.275650,32.339958 204.955750,19.909519 193.630859,8.089786 
	C191.697388,6.071811 190.039795,3.789483 188.127380,1.314639 
	C193.688034,1.000000 199.376083,1.000000 205.636414,1.334698 
	C211.407913,8.722853 216.586212,15.791963 221.843460,22.801878 
	C222.293915,23.402529 223.268753,23.609924 224.000000,24.000000 
	C224.000000,33.687561 224.000000,43.375122 224.000000,53.531342 
z"/>
<path fill="#2C2D3E" opacity="000000" stroke="none" 
	d="
M108.468658,142.000000 
	C110.243904,141.050247 112.424385,139.892838 114.742134,139.184845 
	C128.565887,134.962219 142.526337,131.153000 156.206726,126.514397 
	C160.729141,124.980980 164.556946,121.398994 169.317047,118.401581 
	C175.623398,118.090294 181.315048,118.131096 187.006714,118.171906 
	C185.153610,120.230850 183.670197,122.958122 181.379196,124.225464 
	C174.029388,128.291245 166.392014,131.839676 158.843307,135.542297 
	C154.721222,137.564178 150.554153,139.494370 146.203674,141.732956 
	C133.645767,142.000000 121.291542,142.000000 108.468658,142.000000 
z"/>
<path fill="#2C2D40" opacity="000000" stroke="none" 
	d="
M180.086639,35.314243 
	C175.496033,29.481682 171.159760,23.423655 166.244156,17.879221 
	C161.209747,12.200763 155.608047,7.025262 150.127319,1.314805 
	C154.689255,1.000000 159.378510,1.000000 164.533875,1.000000 
	C166.583405,3.083217 168.006683,5.315135 169.778732,7.223145 
	C176.403793,14.356479 183.313232,21.233770 189.746094,28.533100 
	C191.963837,31.049557 193.100815,34.518471 194.447617,37.802094 
	C189.471375,37.139343 184.779007,36.226795 180.086639,35.314243 
z"/>
<path fill="#2B2C3C" opacity="000000" stroke="none" 
	d="
M1.000000,91.464645 
	C1.881185,92.178139 3.031186,93.239174 3.603120,94.552032 
	C11.813507,113.398682 23.874899,128.777054 42.515308,138.370438 
	C43.766216,139.014221 44.651901,140.367661 45.853725,141.695526 
	C42.638714,142.000000 39.277424,142.000000 35.315941,141.696960 
	C33.472713,140.094284 32.400742,138.552628 30.959223,137.533844 
	C20.683317,130.271515 12.313285,121.306587 5.889495,110.462967 
	C4.667582,108.400330 2.650306,106.808861 0.999999,105.000000 
	C1.000000,100.643097 1.000000,96.286201 1.000000,91.464645 
z"/>
<path fill="#2A2B38" opacity="000000" stroke="none" 
	d="
M0.999999,105.466118 
	C2.650306,106.808861 4.667582,108.400330 5.889495,110.462967 
	C12.313285,121.306587 20.683317,130.271515 30.959223,137.533844 
	C32.400742,138.552628 33.472713,140.094284 34.857872,141.696960 
	C30.975456,142.000000 26.950911,142.000000 22.335777,141.685333 
	C15.131311,134.379227 8.519985,127.385376 1.891865,120.407471 
	C1.683035,120.187622 1.301186,120.132126 1.000000,120.000000 
	C1.000000,115.310745 1.000000,110.621490 0.999999,105.466118 
z"/>
<path fill="#2F314A" opacity="000000" stroke="none" 
	d="
M129.532394,1.000000 
	C133.661438,4.662273 137.382950,8.267155 140.958755,12.011217 
	C142.726593,13.862241 144.225769,15.969832 145.465561,18.362911 
	C140.393066,18.710669 135.701508,18.656853 130.930634,18.280521 
	C128.967178,15.774857 127.266380,13.392751 125.159355,11.451560 
	C121.230949,7.832338 117.066315,4.469528 113.000000,1.000002 
	C118.354927,1.000000 123.709862,1.000000 129.532394,1.000000 
z"/>
<path fill="#292934" opacity="000000" stroke="none" 
	d="
M1.000000,120.468781 
	C1.301186,120.132126 1.683035,120.187622 1.891865,120.407471 
	C8.519985,127.385376 15.131311,134.379227 21.872593,141.685333 
	C15.072069,142.000000 8.144138,142.000000 1.000000,142.000000 
	C1.000000,134.980667 1.000000,127.959114 1.000000,120.468781 
z"/>
<path fill="#27282F" opacity="000000" stroke="none" 
	d="
M224.000000,23.531263 
	C223.268753,23.609924 222.293915,23.402529 221.843460,22.801878 
	C216.586212,15.791963 211.407913,8.722853 206.104370,1.334698 
	C211.935196,1.000000 217.870377,1.000000 224.000000,1.000000 
	C224.000000,8.353330 224.000000,15.707929 224.000000,23.531263 
z"/>
<path fill="#313351" opacity="000000" stroke="none" 
	d="
M112.536812,1.000002 
	C117.066315,4.469528 121.230949,7.832338 125.159355,11.451560 
	C127.266380,13.392751 128.967178,15.774857 130.485687,18.360268 
	C127.414551,18.713411 124.709015,18.664288 122.003479,18.615160 
	C118.980919,15.732876 116.168808,12.578249 112.881798,10.038187 
	C108.894936,6.957314 104.507065,4.395391 100.146347,1.304464 
	C104.024544,1.000000 108.049088,1.000000 112.536812,1.000002 
z"/>
<path fill="#4253FE" opacity="1.000000" stroke="none" 
	d="
M187.449707,118.111801 
	C181.315048,118.131096 175.623398,118.090294 169.467422,118.110367 
	C165.308304,118.131355 161.613510,118.091469 157.111938,117.968979 
	C156.197449,115.257866 156.089706,112.629372 156.072617,109.583710 
	C156.704681,105.112526 157.246094,101.058495 157.881165,96.596283 
	C159.611481,85.069504 158.434402,86.258949 169.091156,86.163948 
	C170.395828,86.152321 171.699417,86.020271 173.465454,86.015663 
	C178.952377,86.038277 183.977341,85.989258 189.441437,86.014740 
	C192.156494,86.133560 194.568787,85.735779 196.659546,86.380592 
	C198.010361,86.797195 198.890244,88.740753 199.981155,90.000031 
	C198.988724,97.383278 197.996307,104.766533 197.047379,112.576050 
	C196.671280,114.567963 196.251678,116.133621 195.737610,118.051712 
	C193.083878,118.051712 190.488281,118.051712 187.449707,118.111801 
z"/>
<path fill="#4253FE" opacity="1.000000" stroke="none" 
	d="
M121.540390,18.690907 
	C124.709015,18.664288 127.414551,18.713411 130.565033,18.682787 
	C135.701508,18.656853 140.393066,18.710669 145.545242,18.685417 
	C147.053741,19.467405 148.101608,20.328457 149.097168,22.010395 
	C148.438934,28.551805 147.833008,34.272331 147.130447,40.404743 
	C146.434509,45.220535 146.073868,49.676838 145.123993,54.003784 
	C144.717056,55.857502 143.084015,57.442062 141.542389,59.093937 
	C135.388535,59.079166 129.700333,59.119377 123.546326,59.097351 
	C109.287079,59.024837 95.493042,59.083015 81.700523,58.964821 
	C77.252937,58.926704 74.873924,60.669559 74.512054,65.231468 
	C74.013039,71.522346 73.157372,77.789497 72.843590,84.086205 
	C72.788895,85.183807 74.639488,87.360695 75.632698,87.374184 
	C85.756668,87.511658 95.885315,87.304214 106.472809,87.283600 
	C115.157578,87.330315 123.382187,87.286705 131.687958,87.640381 
	C131.267776,92.695419 130.766464,97.353180 130.174072,102.420242 
	C129.735611,106.219978 129.388214,109.610413 128.894043,113.368507 
	C128.304962,115.101585 127.862648,116.467003 127.311668,118.167870 
	C101.787270,118.167870 76.391396,118.167870 50.534386,118.108223 
	C45.713799,118.088600 41.354347,118.128624 36.994892,118.168655 
	C34.622623,118.126160 32.250351,118.083664 29.437450,118.104820 
	C26.919138,118.004799 24.560968,118.150856 25.288572,114.457748 
	C25.647989,111.367943 26.046789,108.666344 26.433064,105.539185 
	C27.073421,100.069862 27.726305,95.026108 28.371420,89.537125 
	C30.932512,68.890961 33.394726,48.675320 36.174381,28.503428 
	C36.642036,25.109648 35.094593,20.439150 40.616825,18.732246 
	C47.344265,18.660143 53.695496,18.708057 60.973808,18.769274 
	C75.611420,18.729486 89.321953,18.676395 103.032478,18.623306 
	C109.047417,18.671087 115.062355,18.718870 121.540390,18.690907 
z"/>
<path fill="#33365F" opacity="000000" stroke="none" 
	d="
M102.901695,18.325804 
	C89.321953,18.676395 75.611420,18.729486 61.436256,18.703241 
	C64.361404,16.499559 67.499649,13.342403 71.188034,12.444094 
	C82.351967,9.725112 93.237709,10.572425 102.901695,18.325804 
z"/>
<path fill="#4253FE" opacity="1.000000" stroke="none" 
	d="
M179.781738,35.507488 
	C184.779007,36.226795 189.471375,37.139343 194.531418,38.163605 
	C203.691254,44.605675 207.158142,52.672390 202.735565,63.819092 
	C198.267563,68.214088 194.094940,72.005203 189.507828,75.836746 
	C184.397781,75.952980 179.702225,76.028793 174.700623,75.913879 
	C170.602295,73.650063 166.055908,73.043274 163.738815,68.390671 
	C158.814026,58.501961 159.744904,49.642559 167.193863,41.479771 
	C171.288193,39.553425 175.382507,37.627079 179.781738,35.507488 
z"/>
<path fill="#2D2E41" opacity="000000" stroke="none" 
	d="
M189.922333,75.796326 
	C194.094940,72.005203 198.267563,68.214088 202.692154,64.205109 
	C203.567184,65.117958 204.725754,66.248184 204.726791,67.379471 
	C204.733887,75.032104 205.841171,82.942314 200.269867,89.807312 
	C198.890244,88.740753 198.010361,86.797195 196.659546,86.380592 
	C194.568787,85.735779 192.156494,86.133560 189.476471,85.601791 
	C189.355713,82.008339 189.639023,78.902336 189.922333,75.796326 
z"/>
<path fill="#2E2F45" opacity="000000" stroke="none" 
	d="
M37.097069,118.487305 
	C41.354347,118.128624 45.713799,118.088600 50.722412,118.376266 
	C56.555412,121.207069 61.509094,124.526970 66.965050,126.064369 
	C85.363564,131.248764 103.742645,128.957611 121.589264,123.441078 
	C133.317703,119.815712 144.535507,114.538406 155.981979,110.000870 
	C156.089706,112.629372 156.197449,115.257866 156.654816,118.028954 
	C155.222763,119.556381 153.642593,121.452019 151.628113,122.246765 
	C132.207184,129.908798 112.350403,136.384552 91.296234,136.669937 
	C74.897781,136.892227 58.703159,134.494278 44.389610,125.428375 
	C41.681190,123.712921 39.580402,121.038101 37.097069,118.487305 
z"/>
<path fill="#30324E" opacity="000000" stroke="none" 
	d="
M166.994965,41.170883 
	C159.744904,49.642559 158.814026,58.501961 163.738815,68.390671 
	C166.055908,73.043274 170.602295,73.650063 174.665558,76.301636 
	C174.292206,79.901421 173.647858,82.922722 173.003510,85.944023 
	C171.699417,86.020271 170.395828,86.152321 169.091156,86.163948 
	C158.434402,86.258949 159.611481,85.069504 157.548370,96.673569 
	C155.471954,98.188095 153.862305,99.289673 152.165054,100.233749 
	C144.470490,104.513748 136.751205,108.749306 129.040817,113.000854 
	C129.388214,109.610413 129.735611,106.219978 130.557281,102.402145 
	C133.385742,101.260384 136.064041,101.041550 138.040115,99.749062 
	C148.732544,92.755440 161.302048,77.236778 157.637619,59.730675 
	C156.077469,52.277382 153.877380,44.889240 147.227081,39.992855 
	C147.833008,34.272331 148.438934,28.551805 149.131851,22.409384 
	C153.462570,25.987785 157.830704,29.866951 161.895752,34.041275 
	C163.827209,36.024635 165.180740,38.570789 166.994965,41.170883 
z"/>
<path fill="#2F314A" opacity="000000" stroke="none" 
	d="
M128.894043,113.368507 
	C136.751205,108.749306 144.470490,104.513748 152.165054,100.233749 
	C153.862305,99.289673 155.471954,98.188095 157.454742,97.081757 
	C157.246094,101.058495 156.704681,105.112526 156.072617,109.583710 
	C144.535507,114.538406 133.317703,119.815712 121.589264,123.441078 
	C103.742645,128.957611 85.363564,131.248764 66.965050,126.064369 
	C61.509094,124.526970 56.555412,121.207069 51.183544,118.435913 
	C76.391396,118.167870 101.787270,118.167870 127.311668,118.167870 
	C127.862648,116.467003 128.304962,115.101585 128.894043,113.368507 
z"/>
<path fill="#2E2F46" opacity="000000" stroke="none" 
	d="
M173.465454,86.015663 
	C173.647858,82.922722 174.292206,79.901421 174.971619,76.492371 
	C179.702225,76.028793 184.397781,75.952980 189.507828,75.836746 
	C189.639023,78.902336 189.355713,82.008339 189.037369,85.527298 
	C183.977341,85.989258 178.952377,86.038277 173.465454,86.015663 
z"/>
<path fill="#363863" opacity="000000" stroke="none" 
	d="
M106.012657,87.193275 
	C95.885315,87.304214 85.756668,87.511658 75.632698,87.374184 
	C74.639488,87.360695 72.788895,85.183807 72.843590,84.086205 
	C73.157372,77.789497 74.013039,71.522346 74.512054,65.231468 
	C74.873924,60.669559 77.252937,58.926704 81.700523,58.964821 
	C95.493042,59.083015 109.287079,59.024837 123.483170,59.475327 
	C122.586914,69.027771 118.839340,76.580917 110.783699,81.731483 
	C108.828568,82.981552 107.583969,85.342903 106.012657,87.193275 
z"/>
<path fill="#323353" opacity="000000" stroke="none" 
	d="
M147.130447,40.404743 
	C153.877380,44.889240 156.077469,52.277382 157.637619,59.730675 
	C161.302048,77.236778 148.732544,92.755440 138.040115,99.749062 
	C136.064041,101.041550 133.385742,101.260384 130.648346,101.992844 
	C130.766464,97.353180 131.267776,92.695419 131.984711,87.429657 
	C140.856476,79.506622 144.142075,70.288177 142.008057,59.148918 
	C143.084015,57.442062 144.717056,55.857502 145.123993,54.003784 
	C146.073868,49.676838 146.434509,45.220535 147.130447,40.404743 
z"/>
<path fill="#343659" opacity="000000" stroke="none" 
	d="
M141.542389,59.093933 
	C144.142075,70.288177 140.856476,79.506622 131.903564,87.032372 
	C123.382187,87.286705 115.157578,87.330315 106.472809,87.283600 
	C107.583969,85.342903 108.828568,82.981552 110.783699,81.731483 
	C118.839340,76.580917 122.586914,69.027771 123.948975,59.537567 
	C129.700333,59.119377 135.388535,59.079166 141.542389,59.093933 
z"/>
</svg>